<?xml version="1.0" encoding="iso-8859-1"?>
<!-- Generator: Adobe Illustrator 19.0.0, SVG Export Plug-In . SVG Version: 6.00 Build 0)  -->
<svg version="1.1" id="Layer_1" xmlns="http://www.w3.org/2000/svg" xmlns:xlink="http://www.w3.org/1999/xlink" x="0px" y="0px"
	 viewBox="0 0 512.001 512.001" style="enable-background:new 0 0 512.001 512.001;" xml:space="preserve">
<path style="fill:#999999;" d="M267.392,188.285h-22.782v-46.533c0-6.291,5.1-11.391,11.391-11.391
	c15.075,0,27.339-12.265,27.339-27.339s-12.264-27.339-27.339-27.339c-15.075,0-27.339,12.265-27.339,27.339v11.391h-22.782v-11.391
	c0-27.637,22.484-50.121,50.121-50.121c27.637,0,50.121,22.484,50.121,50.121c0,23.72-16.563,43.644-38.73,48.816V188.285z"/>
<g>
	<path style="fill:#F7B239;" d="M491.896,344.018L280.487,220.02c-15.12-8.869-33.853-8.869-48.974,0L20.104,344.018
		C7.65,351.322,0,364.68,0,379.118l0,0c0,22.474,18.219,40.693,40.693,40.693h430.616c22.474,0,40.693-18.219,40.693-40.693l0,0
		C512,364.68,504.35,351.322,491.896,344.018z M471.308,379.942H40.692c-0.453,0-0.824-0.369-0.824-0.824
		c0-0.29,0.156-0.563,0.407-0.711l215.724-126.531l215.725,126.531c0.251,0.147,0.407,0.419,0.407,0.711
		C472.131,379.573,471.762,379.942,471.308,379.942z"/>
	<path style="fill:#F7B239;" d="M281.915,227.687v-40.936c0-9.69-7.855-17.546-17.546-17.546h-16.738
		c-9.69,0-17.546,7.855-17.546,17.546v40.936"/>
</g>
<g>
	<rect x="104.503" y="368.552" style="fill:#999999;" width="22.782" height="90.548"/>
	<rect x="384.725" y="368.552" style="fill:#999999;" width="22.782" height="90.548"/>
</g>
<g>
</g>
<g>
</g>
<g>
</g>
<g>
</g>
<g>
</g>
<g>
</g>
<g>
</g>
<g>
</g>
<g>
</g>
<g>
</g>
<g>
</g>
<g>
</g>
<g>
</g>
<g>
</g>
<g>
</g>
</svg>
