<?xml version="1.0" encoding="iso-8859-1"?>
<!-- Generator: Adobe Illustrator 19.0.0, SVG Export Plug-In . SVG Version: 6.00 Build 0)  -->
<svg version="1.1" id="Layer_1" xmlns="http://www.w3.org/2000/svg" xmlns:xlink="http://www.w3.org/1999/xlink" x="0px" y="0px"
	 viewBox="0 0 512 512" style="enable-background:new 0 0 512 512;" xml:space="preserve">
<g>
	<path style="fill:#F29C1F;" d="M512,282.483H0V258.94c0-16.252,13.171-29.422,29.422-29.422h453.155
		c16.252,0,29.422,13.171,29.422,29.422V282.483z"/>
	<path style="fill:#F0C94F;" d="M441.379,229.517H70.621l44.473-177.894c4.988-19.959,22.934-33.969,43.511-33.969h194.79
		c20.577,0,38.524,14.009,43.511,33.969L441.379,229.517z"/>
	<g>
		<path style="fill:#D1D4D1;" d="M200.633,476.353c-88.32-24.947-147.668-102.85-147.668-193.871h17.655
			c0,83.023,54.175,154.112,134.815,176.887L200.633,476.353z"/>
		<path style="fill:#D1D4D1;" d="M311.362,476.353l-4.793-16.984c80.631-22.766,134.815-93.855,134.815-176.887h17.655
			C459.039,373.512,399.691,451.424,311.362,476.353"/>
	</g>
	<path style="fill:#F29C1F;" d="M301.241,494.345h-90.483c-4.264,0-7.724-3.46-7.724-7.724v-37.517c0-4.264,3.46-7.724,7.724-7.724
		h90.483c4.264,0,7.724,3.46,7.724,7.724v37.517C308.966,490.884,305.505,494.345,301.241,494.345"/>
	<polygon style="fill:#E64C3C;" points="101.517,105.931 92.69,141.241 419.31,141.241 410.483,105.931 	"/>
</g>
<g>
</g>
<g>
</g>
<g>
</g>
<g>
</g>
<g>
</g>
<g>
</g>
<g>
</g>
<g>
</g>
<g>
</g>
<g>
</g>
<g>
</g>
<g>
</g>
<g>
</g>
<g>
</g>
<g>
</g>
</svg>
