<?xml version="1.0" encoding="iso-8859-1"?>
<!-- Generator: Adobe Illustrator 19.0.0, SVG Export Plug-In . SVG Version: 6.00 Build 0)  -->
<svg version="1.1" id="Capa_1" xmlns="http://www.w3.org/2000/svg" xmlns:xlink="http://www.w3.org/1999/xlink" x="0px" y="0px"
	 viewBox="0 0 512 512" style="enable-background:new 0 0 512 512;" xml:space="preserve">
<g>
	<path style="fill:#D3843D;" d="M220.69,312.609h-61.281c-3.716,0-7.044,2.33-8.307,5.826l-44.641,123.586
		c-1.66,4.582,0.715,9.649,5.297,11.299c0.962,0.344,1.977,0.53,3.001,0.53h61.281c3.716,0,7.044-2.33,8.307-5.826l44.641-123.586
		c1.66-4.582-0.715-9.649-5.297-11.299C222.729,312.786,221.714,312.609,220.69,312.609z"/>
	<path style="fill:#D3843D;" d="M405.539,442.022l-44.641-123.586c-1.262-3.496-4.59-5.826-8.307-5.826H291.31
		c-4.873,0-8.828,3.955-8.828,8.828c0,1.024,0.177,2.039,0.53,3.001l44.641,123.586c1.262,3.496,4.59,5.826,8.307,5.826h61.281
		c4.873,0,8.828-3.955,8.828-8.828C406.069,443.99,405.884,442.984,405.539,442.022z"/>
</g>
<g>
	<path style="fill:#AD6327;" d="M446.385,375.965c-2.383-1.66-5.438-2.03-8.148-0.989l-58.65,22.378
		c-79.598,30.349-167.574,30.349-247.172,0L73.799,375.02c-4.546-1.757-9.657,0.512-11.414,5.058
		c-0.388,0.997-0.591,2.074-0.591,3.151v52.966c0,3.663,2.26,6.947,5.685,8.254l58.615,22.325
		c83.668,31.903,176.146,31.903,259.814,0l58.615-22.325c3.425-1.306,5.685-4.59,5.685-8.254V383.23
		C450.207,380.326,448.777,377.607,446.385,375.965z"/>
	<path style="fill:#AD6327;" d="M70.621,215.506h370.759l0,0l0,0c0,58.5-47.431,105.931-105.931,105.931H176.552
		C118.051,321.437,70.621,274.006,70.621,215.506L70.621,215.506L70.621,215.506z"/>
</g>
<rect x="176.552" y="215.506" style="fill:#FDBD40;" width="123.586" height="52.966"/>
<path style="fill:#AD6327;" d="M467.862,21.299h-26.483v88.276h26.483c24.373,0,44.138-19.765,44.138-44.138
	S492.235,21.299,467.862,21.299z"/>
<polygon style="fill:#D3843D;" points="335.448,21.299 335.448,109.575 335.448,215.506 441.379,215.506 441.379,109.575 
	441.379,21.299 "/>
<circle style="fill:#CFDFE8;" cx="388.414" cy="74.264" r="8.828"/>
<path style="fill:#5A6470;" d="M388.414,47.782c-14.627,0-26.483,11.855-26.483,26.483s11.855,26.483,26.483,26.483
	s26.483-11.855,26.483-26.483S403.041,47.782,388.414,47.782z M388.414,83.092c-4.873,0-8.828-3.955-8.828-8.828
	c0-4.873,3.955-8.828,8.828-8.828s8.828,3.955,8.828,8.828C397.241,79.137,393.287,83.092,388.414,83.092z"/>
<path style="fill:#D3843D;" d="M0,162.54h35.31c29.255,0,52.966,23.711,52.966,52.966l0,0l0,0H0l0,0V162.54L0,162.54z"/>
<path style="fill:#AD6327;" d="M335.448,38.954L335.448,38.954L335.448,38.954v141.241l0,0h-35.31l0,0V74.264
	C300.138,54.755,315.948,38.954,335.448,38.954z"/>
<g>
</g>
<g>
</g>
<g>
</g>
<g>
</g>
<g>
</g>
<g>
</g>
<g>
</g>
<g>
</g>
<g>
</g>
<g>
</g>
<g>
</g>
<g>
</g>
<g>
</g>
<g>
</g>
<g>
</g>
</svg>
