<?xml version="1.0" encoding="iso-8859-1"?>
<!-- Generator: Adobe Illustrator 19.0.0, SVG Export Plug-In . SVG Version: 6.00 Build 0)  -->
<svg version="1.1" id="Capa_1" xmlns="http://www.w3.org/2000/svg" xmlns:xlink="http://www.w3.org/1999/xlink" x="0px" y="0px"
	 viewBox="0 0 512 512" style="enable-background:new 0 0 512 512;" xml:space="preserve">
<polygon style="fill:#FE8944;" points="71.987,512 303.586,271.908 277.827,222.734 42.763,482.776 "/>
<polygon style="fill:#FEB158;" points="12.759,452.772 42.763,482.776 295.436,230.103 251.233,222.734 "/>
<polygon style="fill:#FE8944;" points="416.068,96.36 459.896,109.865 499.241,69.078 477.851,47.688 "/>
<polygon style="fill:#FEB158;" points="455.681,25.518 416.068,63.73 421.246,104.294 477.851,47.688 "/>
<path style="fill:#E0E3E6;" d="M435.329,90.211L331.667,135l-50.169,109.042l4.475,15.95c11.051,9.058,23.376,15.778,36.319,20.162
	l14.88-4.346l14.552,10.235c27.77,1.914,56.094-6.068,79.24-23.946l1.324-18.948l19.89-2.266
	c17.878-23.147,25.86-51.473,23.945-79.244l-11.486-13.206l5.598-16.219c-4.383-12.94-11.101-25.264-20.156-36.313L435.329,90.211z"
	/>
<path style="fill:#F5F5F6;" d="M323.976,13.51c-15.347,14.413-39.469,14.134-54.462-0.86c-3.482-3.482-6.162-7.46-8.058-11.703
	c-40.202-3.351-67.163,3.264-67.163,3.264s-8.953,36.488-0.74,87.872l12.24,15.212l-5.729,14.791
	c4.741,17.2,11.546,35.421,21.165,54.044l17.43,10.506l-1.171,17.091c7.752,11.646,16.715,23.329,27.068,34.903l16.943,5.411
	l153.83-153.83l-6.421-15.574c-11.639-10.428-23.389-19.45-35.101-27.245l-17.148,0.868l-10.453-17.129
	C351.793,23.687,337.621,17.929,323.976,13.51z"/>
<path style="fill:#FE8944;" d="M366.205,31.134l-43.908,249.012c9.561,3.238,19.456,5.205,29.425,5.892L393.8,47.397
	C384.554,41.243,375.331,35.848,366.205,31.134z"/>
<path style="fill:#D24B1D;" d="M470.227,132.216L221.24,176.12c4.714,9.127,10.107,18.349,16.261,27.596l238.618-42.075
	C475.431,151.672,473.464,141.777,470.227,132.216z"/>
<path style="fill:#E0E3E6;" d="M260.035,92.087h-66.476c1.524,9.535,3.635,19.577,6.507,30h59.969V92.087z"/>
<path style="fill:#CCCDD2;" d="M452.175,240.882l-35.736-35.736l-21.213,21.213l35.736,35.736c3.919-3.027,7.69-6.335,11.284-9.929
	S449.149,244.8,452.175,240.882z"/>
<path style="fill:#FFDAAE;" d="M442.246,87.256c-0.665-0.664-1.331-1.311-1.996-1.966c-3.766-3.705-7.549-7.249-11.344-10.649
	L264.73,238.816c3.4,3.795,6.941,7.58,10.646,11.347c0.656,0.667,1.293,1.337,1.959,2.003c2.78,2.78,5.666,5.386,8.644,7.827
	L450.073,95.899C447.633,92.922,445.026,90.035,442.246,87.256z"/>
<g>
</g>
<g>
</g>
<g>
</g>
<g>
</g>
<g>
</g>
<g>
</g>
<g>
</g>
<g>
</g>
<g>
</g>
<g>
</g>
<g>
</g>
<g>
</g>
<g>
</g>
<g>
</g>
<g>
</g>
</svg>
